<svg xmlns="http://www.w3.org/2000/svg" width="103" height="35" fill="none"><path fill="#161525" d="M31.992 26.5V9.7h2.976l5.28 7.776L45.48 9.7h3v16.8h-2.784V14.092l-5.472 8.088-5.448-8.04V26.5h-2.784zm25.277.288c-1.2 0-2.272-.264-3.216-.792a5.853 5.853 0 0 1-2.184-2.232c-.528-.944-.792-2.032-.792-3.264 0-1.232.256-2.32.768-3.264a5.68 5.68 0 0 1 2.184-2.208c.928-.544 1.992-.816 3.192-.816 1.2 0 2.264.272 3.192.816a5.516 5.516 0 0 1 2.16 2.208c.528.944.792 2.032.792 3.264 0 1.232-.256 2.32-.768 3.264a5.68 5.68 0 0 1-2.16 2.232c-.928.528-1.984.792-3.168.792zm0-2.472c.656 0 1.24-.16 1.752-.48a3.48 3.48 0 0 0 1.2-1.344c.288-.576.432-1.24.432-1.992s-.152-1.408-.456-1.968a3.268 3.268 0 0 0-1.2-1.344c-.512-.336-1.104-.504-1.776-.504-.672 0-1.264.16-1.776.48-.512.32-.912.768-1.2 1.344-.288.576-.432 1.24-.432 1.992s.144 1.416.432 1.992c.304.56.712 1.008 1.224 1.344.528.32 1.128.48 1.8.48zm8.225 2.184V9.7h2.688v14.568l-.144 2.232h-2.544zm6.48.288c-1.008 0-1.88-.256-2.616-.768-.72-.528-1.272-1.264-1.656-2.208-.384-.944-.576-2.048-.576-3.312 0-1.28.192-2.384.576-3.312.384-.944.936-1.672 1.656-2.184.736-.528 1.608-.792 2.616-.792 1.088 0 2.032.264 2.832.792.816.512 1.448 1.24 1.896 2.184.464.928.696 2.032.696 3.312 0 1.264-.232 2.368-.696 3.312-.448.944-1.08 1.68-1.896 2.208-.8.512-1.744.768-2.832.768zm-.672-2.448c.64 0 1.208-.16 1.704-.48a3.51 3.51 0 0 0 1.176-1.368c.304-.576.456-1.24.456-1.992s-.144-1.416-.432-1.992a3.164 3.164 0 0 0-1.152-1.344c-.496-.32-1.072-.48-1.728-.48-.608 0-1.152.16-1.632.48-.48.32-.856.768-1.128 1.344-.256.576-.384 1.24-.384 1.992s.128 1.416.384 1.992c.272.576.64 1.032 1.104 1.368.48.32 1.024.48 1.632.48zm8.363 2.16v-12h2.664v12h-2.664zm1.344-14.28c-.432 0-.808-.152-1.128-.456a1.584 1.584 0 0 1-.456-1.128c0-.432.152-.8.456-1.104.32-.304.696-.456 1.128-.456.432 0 .8.152 1.104.456.32.304.48.672.48 1.104 0 .432-.16.808-.48 1.128a1.504 1.504 0 0 1-1.104.456zm9.064 14.568c-1.264 0-2.232-.312-2.904-.936-.656-.64-.984-1.552-.984-2.736v-12.36h2.664v11.856c0 .56.128.984.384 1.272.272.288.664.432 1.176.432.16 0 .336-.032.528-.096s.408-.184.648-.36l.984 2.04a5.175 5.175 0 0 1-1.248.648c-.416.16-.832.24-1.248.24zm-5.88-9.984V14.5h7.896v2.304h-7.896z"/><path fill="#5A45FE" d="M25.386 17.654c-.817.54-4.443 2.6-12.208 2.6-7.728 0-11.66-2.07-12.563-2.615-.001.084-.007.168-.007.252 0 .351.019.698.048 1.041 1.645.854 5.619 2.43 12.522 2.43 6.79 0 10.568-1.528 12.164-2.395.03-.355.05-.713.05-1.075 0-.08-.004-.16-.006-.238z"/><path fill="#5A45FE" d="m1.119 21.189-.046.053.001.001c.155.552.347 1.087.572 1.604 1.76.97 5.448 2.454 11.562 2.454 5.715 0 9.23-1.295 11.058-2.259.25-.542.46-1.105.63-1.686-.842.614-4.388 2.837-11.688 2.837-8.436 0-12.054-2.974-12.09-3.004zm23.878-6.407a12.859 12.859 0 0 0-.344-1.108c-.828.63-3.889 2.474-11.267 2.474-7.376 0-11.004-1.881-12.022-2.518-.13.356-.244.72-.342 1.092 1.422.832 5.203 2.533 12.364 2.533 6.92 0 10.288-1.599 11.611-2.473z"/><path fill="#5A45FE" d="M2.941 25.115a12.51 12.51 0 0 0 2.39 2.499c1.797.668 4.398 1.275 7.952 1.275 3.171 0 5.504-.504 7.178-1.11a12.47 12.47 0 0 0 2.655-2.744c-.374.36-3.114 2.747-9.833 2.747-6.744 0-9.894-2.31-10.342-2.667zm21.021.643.026-.027-.005-.005c-.008.01-.013.022-.021.032zM13.345 6.779c1.662-.06 2.79-.474 3.33-.723a12.577 12.577 0 0 0-3.673-.556 12.5 12.5 0 0 0-3.7.564 10.254 10.254 0 0 0 4.043.715zm.036 23.608a8.59 8.59 0 0 1-1.598-.104 12.34 12.34 0 0 0-2.407.498c.52.21 1.953.719 3.716.719.108 0 .218-.002.329-.007 1.663-.059 2.79-.473 3.33-.721a12.153 12.153 0 0 0-2.344-.484 8.882 8.882 0 0 1-1.026.1zm7.23-22.264a12.9 12.9 0 0 0-.967-.683c-.961.616-2.939 1.489-6.436 1.489-3.488 0-5.758-.823-6.952-1.424-.346.225-.68.467-1 .724 1.157.678 3.721 1.808 7.951 1.808 4.188-.001 6.417-1.177 7.404-1.914zm2.766 3.007a12.7 12.7 0 0 0-.648-.9c-.987.743-3.787 2.354-9.523 2.354-5.349 0-8.463-1.63-9.788-2.54-.235.287-.458.586-.668.894 1.453 1.018 4.756 2.754 10.456 2.754 5.947 0 8.984-1.679 10.17-2.563z"/></svg>